# xmcd
#
# Track frame offsets:
#	150
#	9289
#	26208
#	39268
#	51445
#	65272
#	79862
#	94739
#	110506
#	124737
#	143870
#
# Disc length: 2117 seconds
#
# Revision: 0
# Processed by: cddbd v1.5.2PL0 Copyright (c) Steve Scherf et al.
# Submitted via: EasyCDDAExtractor 16.0.4.1
#
DISCID=8d08430b
DTITLE=Sharon Mills - The Calvary Road
DYEAR=2001
DGENRE=
TTITLE0=Round-up time in heaven
TTITLE1=The Calvary road
TTITLE2=Nail-scarred hands
TTITLE3=He reached down his hand to me
TTITLE4=These things shall pass
TTITLE5=Naught have I gotten
TTITLE6=Is my name written there?
TTITLE7=I want to see my saviour
TTITLE8=He just loved me more and more
TTITLE9=What does the cross mean to you?
TTITLE10=What will you do without Jesus?
EXTD=
EXTT0=
EXTT1=
EXTT2=
EXTT3=
EXTT4=
EXTT5=
EXTT6=
EXTT7=
EXTT8=
EXTT9=
EXTT10=
PLAYORDER=
